<svg width="14" height="15" viewBox="0 0 14 15" fill="none" xmlns="http://www.w3.org/2000/svg">
<path d="M2.52778 0.5C1.13172 0.5 0 1.63172 0 3.02778V6.13889C0 6.46104 0.26117 6.72222 0.583333 6.72222C0.905497 6.72222 1.16667 6.46104 1.16667 6.13889V3.02778C1.16667 2.27606 1.77606 1.66667 2.52778 1.66667H7V5.75C7 6.71647 7.78353 7.5 8.75 7.5H12.8333V11.9722C12.8333 12.7239 12.2239 13.3333 11.4722 13.3333H8.36111C8.03896 13.3333 7.77778 13.5945 7.77778 13.9167C7.77778 14.2388 8.03896 14.5 8.36111 14.5H11.4722C12.8683 14.5 14 13.3683 14 11.9722V3.02778C14 1.63172 12.8683 0.5 11.4722 0.5H2.52778ZM8.16667 5.75V1.66667H11.4722C12.2239 1.66667 12.8333 2.27606 12.8333 3.02778V6.33333H8.75C8.42785 6.33333 8.16667 6.07216 8.16667 5.75ZM0 8.86111C0 9.18327 0.26117 9.44444 0.583333 9.44444H4.2306L0.170854 13.5042C-0.0569489 13.732 -0.0569489 14.1013 0.170854 14.3291C0.398658 14.5569 0.768009 14.5569 0.995812 14.3291L5.05556 10.2694V13.9167C5.05556 14.2388 5.31673 14.5 5.63889 14.5C5.96104 14.5 6.22222 14.2388 6.22222 13.9167V8.86111C6.22222 8.53896 5.96104 8.27778 5.63889 8.27778H0.583333C0.26117 8.27778 0 8.53896 0 8.86111Z" fill="#141414"/>
</svg>
